<svg width="234" height="234" viewBox="0 0 234 234" fill="none" xmlns="http://www.w3.org/2000/svg">
<path fill-rule="evenodd" clip-rule="evenodd" d="M216.188 144.452C227.947 172.842 234 203.271 234 234L142.997 234C142.459 157.14 79.9863 95 3 95C1.9975 95 0.997467 95.0105 -1.52588e-05 95.0315L-3.05176e-05 0C30.7293 -4.63999e-06 61.1577 6.05258 89.5479 17.8122C117.938 29.5718 143.734 46.8081 165.463 68.537C187.192 90.2659 204.428 116.062 216.188 144.452Z" fill="#e7ebec"/>
<rect x="234" y="204" width="30" height="31" transform="rotate(90 234 204)" fill="white"/>
<rect x="205" y="190" width="16" height="15" transform="rotate(90 205 190)" fill="white"/>
<rect x="59" y="77" width="17" height="16" transform="rotate(90 59 77)" fill="white"/>
<rect x="36" y="72" width="28" height="36" transform="rotate(90 36 72)" fill="white"/>
<rect x="43" y="65" width="13" height="15" transform="rotate(90 43 65)" fill="white"/>
</svg>
